<svg width="180" height="182" viewBox="0 0 180 182" fill="none" xmlns="http://www.w3.org/2000/svg">
<path d="M134.346 11.6094L71.8216 83.1928C70.7317 84.4406 68.8366 84.5687 67.5887 83.4789L51.0189 69.0077C49.771 67.9178 49.6429 66.0225 50.7329 64.7746L102.918 5.0265C103.488 4.37425 104.312 4 105.178 4H134.389C136.965 4 138.343 7.03303 136.648 8.97338L134.346 11.6094Z" fill="#E8BD30"/>
<path d="M134.337 169.843L71.8128 98.2593C70.7229 97.0115 68.8278 96.8835 67.5799 97.9733L51.0102 112.444C49.7622 113.534 49.6341 115.43 50.7241 116.678L102.91 176.426C103.479 177.078 104.303 177.452 105.169 177.452H134.38C136.956 177.452 138.334 174.419 136.64 172.479L134.337 169.843Z" fill="#E8BD30"/>
<path d="M60.2718 93.7251C61.6857 92.5428 61.7092 90.377 60.3212 89.1644L47.8119 78.2358C45.8832 76.5508 42.866 77.9017 42.8383 80.4626L42.605 102.046C42.5774 104.607 45.5646 106.023 47.5293 104.38L60.2718 93.7251Z" fill="#E8BD30"/>
</svg>
