<svg width="785" height="303" viewBox="0 0 785 303" fill="none" xmlns="http://www.w3.org/2000/svg">
<mask id="path-1-inside-1_91_288" fill="white">
<path d="M20.57 222V55.02H50.094V128.104L115.676 55.02H143.264L146.168 61.07L90.024 123.748L151.976 215.95L149.072 222H121.968L70.906 145.286L50.094 167.55V222H20.57ZM174.053 72.928V44.13H203.819V72.928H174.053ZM174.779 222V94.95H203.093V222H174.779ZM236.876 222V94.95H306.572C331.902 94.95 344.566 107.695 344.566 133.186V222H316.252V130.766C316.252 123.345 312.542 119.634 305.12 119.634H265.19V222H236.876ZM372.837 212.562V197.316H428.739C436.16 197.316 439.871 193.363 439.871 185.458C439.871 177.23 436.806 172.551 430.675 171.422L403.571 167.066C383.082 163.517 372.837 151.901 372.837 132.218C372.837 107.373 385.582 94.95 411.073 94.95H449.551L462.377 104.388V119.634H412.283C404.7 119.634 400.909 123.587 400.909 131.492C400.909 139.397 404.136 143.915 410.589 145.044L437.693 149.4C458.021 152.788 468.185 164.485 468.185 184.49C468.185 209.497 455.359 222 429.707 222H385.663L372.837 212.562ZM496.229 183.764V55.02H524.543V94.95H567.861V119.634H524.543V186.184C524.543 193.605 528.253 197.316 535.675 197.316H570.281V212.562L557.455 222H534.465C508.974 222 496.229 209.255 496.229 183.764ZM592.807 183.764V133.186C592.807 107.695 605.553 94.95 631.043 94.95H662.503C687.833 94.95 700.497 107.695 700.497 133.186V169.002H621.121V186.184C621.121 193.605 624.832 197.316 632.253 197.316H695.657V212.562L682.831 222H631.043C605.553 222 592.807 209.255 592.807 183.764ZM621.121 146.98H672.183V130.766C672.183 123.345 668.473 119.634 661.051 119.634H632.253C624.832 119.634 621.121 123.345 621.121 130.766V146.98ZM731.498 179.892V42.92H759.812V182.796C759.812 193.283 765.136 198.929 775.784 199.736V224.178C746.26 224.178 731.498 209.416 731.498 179.892Z"/>
</mask>
<path d="M20.57 222H8.57V234H20.57V222ZM20.57 55.02V43.02H8.57V55.02H20.57ZM50.094 55.02H62.094V43.02H50.094V55.02ZM50.094 128.104H38.094V159.444L59.0253 136.118L50.094 128.104ZM115.676 55.02V43.02H110.321L106.745 47.0055L115.676 55.02ZM143.264 55.02L154.082 49.8272L150.815 43.02H143.264V55.02ZM146.168 61.07L155.106 69.0766L160.456 63.1049L156.986 55.8772L146.168 61.07ZM90.024 123.748L81.0856 115.741L74.8582 122.694L80.0636 130.441L90.024 123.748ZM151.976 215.95L162.794 221.143L165.765 214.955L161.936 209.257L151.976 215.95ZM149.072 222V234H156.623L159.89 227.193L149.072 222ZM121.968 222L111.979 228.649L115.54 234H121.968V222ZM70.906 145.286L80.8955 138.637L72.494 126.015L62.1397 137.091L70.906 145.286ZM50.094 167.55L41.3277 159.355L38.094 162.815V167.55H50.094ZM50.094 222V234H62.094V222H50.094ZM20.57 222H32.57V55.02H20.57H8.57V222H20.57ZM20.57 55.02V67.02H50.094V55.02V43.02H20.57V55.02ZM50.094 55.02H38.094V128.104H50.094H62.094V55.02H50.094ZM50.094 128.104L59.0253 136.118L124.607 63.0345L115.676 55.02L106.745 47.0055L41.1627 120.09L50.094 128.104ZM115.676 55.02V67.02H143.264V55.02V43.02H115.676V55.02ZM143.264 55.02L132.446 60.2128L135.35 66.2628L146.168 61.07L156.986 55.8772L154.082 49.8272L143.264 55.02ZM146.168 61.07L137.23 53.0634L81.0856 115.741L90.024 123.748L98.9624 131.755L155.106 69.0766L146.168 61.07ZM90.024 123.748L80.0636 130.441L142.016 222.643L151.976 215.95L161.936 209.257L99.9844 117.055L90.024 123.748ZM151.976 215.95L141.158 210.757L138.254 216.807L149.072 222L159.89 227.193L162.794 221.143L151.976 215.95ZM149.072 222V210H121.968V222V234H149.072V222ZM121.968 222L131.957 215.351L80.8955 138.637L70.906 145.286L60.9166 151.935L111.979 228.649L121.968 222ZM70.906 145.286L62.1397 137.091L41.3277 159.355L50.094 167.55L58.8603 175.745L79.6723 153.481L70.906 145.286ZM50.094 167.55H38.094V222H50.094H62.094V167.55H50.094ZM50.094 222V210H20.57V222V234H50.094V222ZM174.053 72.928H162.053V84.928H174.053V72.928ZM174.053 44.13V32.13H162.053V44.13H174.053ZM203.819 44.13H215.819V32.13H203.819V44.13ZM203.819 72.928V84.928H215.819V72.928H203.819ZM174.779 222H162.779V234H174.779V222ZM174.779 94.95V82.95H162.779V94.95H174.779ZM203.093 94.95H215.093V82.95H203.093V94.95ZM203.093 222V234H215.093V222H203.093ZM174.053 72.928H186.053V44.13H174.053H162.053V72.928H174.053ZM174.053 44.13V56.13H203.819V44.13V32.13H174.053V44.13ZM203.819 44.13H191.819V72.928H203.819H215.819V44.13H203.819ZM203.819 72.928V60.928H174.053V72.928V84.928H203.819V72.928ZM174.779 222H186.779V94.95H174.779H162.779V222H174.779ZM174.779 94.95V106.95H203.093V94.95V82.95H174.779V94.95ZM203.093 94.95H191.093V222H203.093H215.093V94.95H203.093ZM203.093 222V210H174.779V222V234H203.093V222ZM236.876 222H224.876V234H236.876V222ZM236.876 94.95V82.95H224.876V94.95H236.876ZM344.566 222V234H356.566V222H344.566ZM316.252 222H304.252V234H316.252V222ZM265.19 119.634V107.634H253.19V119.634H265.19ZM265.19 222V234H277.19V222H265.19ZM236.876 222H248.876V94.95H236.876H224.876V222H236.876ZM236.876 94.95V106.95H306.572V94.95V82.95H236.876V94.95ZM306.572 94.95V106.95C317.368 106.95 323.265 109.655 326.556 112.967C329.861 116.293 332.566 122.271 332.566 133.186H344.566H356.566C356.566 118.61 352.94 105.47 343.58 96.0507C334.206 86.6173 321.106 82.95 306.572 82.95V94.95ZM344.566 133.186H332.566V222H344.566H356.566V133.186H344.566ZM344.566 222V210H316.252V222V234H344.566V222ZM316.252 222H328.252V130.766H316.252H304.252V222H316.252ZM316.252 130.766H328.252C328.252 125.206 326.854 118.831 321.955 113.932C317.055 109.032 310.681 107.634 305.12 107.634V119.634V131.634C306.012 131.634 306.303 131.75 306.196 131.714C306.131 131.692 305.961 131.628 305.73 131.489C305.494 131.348 305.235 131.153 304.984 130.902C304.733 130.651 304.538 130.392 304.397 130.156C304.258 129.925 304.194 129.756 304.172 129.69C304.137 129.584 304.252 129.875 304.252 130.766H316.252ZM305.12 119.634V107.634H265.19V119.634V131.634H305.12V119.634ZM265.19 119.634H253.19V222H265.19H277.19V119.634H265.19ZM265.19 222V210H236.876V222V234H265.19V222ZM372.837 212.562H360.837V218.631L365.725 222.227L372.837 212.562ZM372.837 197.316V185.316H360.837V197.316H372.837ZM430.675 171.422L432.849 159.621L432.714 159.596L432.579 159.574L430.675 171.422ZM403.571 167.066L401.523 178.89L401.595 178.902L401.667 178.914L403.571 167.066ZM449.551 94.95L456.663 85.2847L453.49 82.95H449.551V94.95ZM462.377 104.388H474.377V98.3195L469.489 94.7227L462.377 104.388ZM462.377 119.634V131.634H474.377V119.634H462.377ZM410.589 145.044L408.52 156.864L408.602 156.879L408.685 156.892L410.589 145.044ZM437.693 149.4L439.666 137.563L439.631 137.558L439.597 137.552L437.693 149.4ZM385.663 222L378.551 231.665L381.724 234H385.663V222ZM372.837 212.562H384.837V197.316H372.837H360.837V212.562H372.837ZM372.837 197.316V209.316H428.739V197.316V185.316H372.837V197.316ZM428.739 197.316V209.316C434.5 209.316 440.973 207.746 445.837 202.565C450.567 197.526 451.871 191.078 451.871 185.458H439.871H427.871C427.871 186.533 427.74 187.006 427.723 187.062C427.718 187.077 427.749 186.974 427.85 186.795C427.954 186.611 428.113 186.379 428.339 186.138C428.566 185.896 428.815 185.694 429.06 185.537C429.302 185.383 429.493 185.302 429.594 185.267C429.774 185.203 429.562 185.316 428.739 185.316V197.316ZM439.871 185.458H451.871C451.871 180.046 450.893 174.213 447.609 169.202C444.065 163.791 438.732 160.704 432.849 159.621L430.675 171.422L428.501 183.223C428.748 183.269 428.609 183.281 428.29 183.08C427.947 182.863 427.681 182.578 427.534 182.354C427.412 182.167 427.501 182.22 427.621 182.725C427.744 183.244 427.871 184.121 427.871 185.458H439.871ZM430.675 171.422L432.579 159.574L405.475 155.218L403.571 167.066L401.667 178.914L428.771 183.27L430.675 171.422ZM403.571 167.066L405.619 155.242C397.145 153.774 392.301 150.908 389.52 147.755C386.81 144.682 384.837 139.953 384.837 132.218H372.837H360.837C360.837 144.166 363.986 155.086 371.521 163.629C378.984 172.092 389.507 176.809 401.523 178.89L403.571 167.066ZM372.837 132.218H384.837C384.837 121.724 387.51 116.04 390.772 112.86C394.091 109.625 400.101 106.95 411.073 106.95V94.95V82.95C396.554 82.95 383.446 86.4861 374.02 95.6736C364.537 104.917 360.837 117.866 360.837 132.218H372.837ZM411.073 94.95V106.95H449.551V94.95V82.95H411.073V94.95ZM449.551 94.95L442.439 104.615L455.265 114.053L462.377 104.388L469.489 94.7227L456.663 85.2847L449.551 94.95ZM462.377 104.388H450.377V119.634H462.377H474.377V104.388H462.377ZM462.377 119.634V107.634H412.283V119.634V131.634H462.377V119.634ZM412.283 119.634V107.634C406.512 107.634 400.01 109.164 395.092 114.292C390.263 119.326 388.909 125.812 388.909 131.492H400.909H412.909C412.909 130.979 412.94 130.602 412.976 130.342C413.011 130.083 413.048 129.965 413.05 129.959C413.051 129.955 413.015 130.067 412.909 130.252C412.8 130.441 412.637 130.671 412.413 130.905C412.187 131.14 411.945 131.331 411.716 131.475C411.49 131.616 411.319 131.685 411.246 131.71C411.177 131.734 411.212 131.714 411.385 131.688C411.559 131.662 411.852 131.634 412.283 131.634V119.634ZM400.909 131.492H388.909C388.909 136.923 389.998 142.792 393.564 147.784C397.334 153.061 402.792 155.862 408.52 156.864L410.589 145.044L412.657 133.224C412.213 133.146 412.192 133.075 412.4 133.196C412.641 133.337 412.905 133.57 413.094 133.834C413.263 134.071 413.219 134.119 413.129 133.769C413.032 133.398 412.909 132.676 412.909 131.492H400.909ZM410.589 145.044L408.685 156.892L435.789 161.248L437.693 149.4L439.597 137.552L412.493 133.196L410.589 145.044ZM437.693 149.4L435.72 161.237C444.046 162.624 448.778 165.448 451.504 168.585C454.191 171.677 456.185 176.518 456.185 184.49H468.185H480.185C480.185 172.456 477.097 161.447 469.62 152.842C462.182 144.283 451.667 139.564 439.666 137.563L437.693 149.4ZM468.185 184.49H456.185C456.185 195.065 453.492 200.81 450.189 204.03C446.829 207.305 440.759 210 429.707 210V222V234C444.307 234 457.475 230.443 466.942 221.215C476.465 211.932 480.185 198.922 480.185 184.49H468.185ZM429.707 222V210H385.663V222V234H429.707V222ZM385.663 222L392.775 212.335L379.949 202.897L372.837 212.562L365.725 222.227L378.551 231.665L385.663 222ZM496.229 55.02V43.02H484.229V55.02H496.229ZM524.543 55.02H536.543V43.02H524.543V55.02ZM524.543 94.95H512.543V106.95H524.543V94.95ZM567.861 94.95H579.861V82.95H567.861V94.95ZM567.861 119.634V131.634H579.861V119.634H567.861ZM524.543 119.634V107.634H512.543V119.634H524.543ZM570.281 197.316H582.281V185.316H570.281V197.316ZM570.281 212.562L577.393 222.227L582.281 218.631V212.562H570.281ZM557.455 222V234H561.394L564.567 231.665L557.455 222ZM496.229 183.764H508.229V55.02H496.229H484.229V183.764H496.229ZM496.229 55.02V67.02H524.543V55.02V43.02H496.229V55.02ZM524.543 55.02H512.543V94.95H524.543H536.543V55.02H524.543ZM524.543 94.95V106.95H567.861V94.95V82.95H524.543V94.95ZM567.861 94.95H555.861V119.634H567.861H579.861V94.95H567.861ZM567.861 119.634V107.634H524.543V119.634V131.634H567.861V119.634ZM524.543 119.634H512.543V186.184H524.543H536.543V119.634H524.543ZM524.543 186.184H512.543C512.543 191.744 513.941 198.119 518.84 203.018C523.74 207.918 530.114 209.316 535.675 209.316V197.316V185.316C534.783 185.316 534.492 185.2 534.599 185.236C534.664 185.258 534.834 185.322 535.065 185.461C535.3 185.602 535.56 185.797 535.811 186.048C536.062 186.299 536.257 186.558 536.398 186.794C536.537 187.025 536.601 187.194 536.622 187.26C536.658 187.366 536.543 187.075 536.543 186.184H524.543ZM535.675 197.316V209.316H570.281V197.316V185.316H535.675V197.316ZM570.281 197.316H558.281V212.562H570.281H582.281V197.316H570.281ZM570.281 212.562L563.168 202.897L550.342 212.335L557.455 222L564.567 231.665L577.393 222.227L570.281 212.562ZM557.455 222V210H534.465V222V234H557.455V222ZM534.465 222V210C523.569 210 517.601 207.284 514.273 203.956C510.944 200.627 508.229 194.66 508.229 183.764H496.229H484.229C484.229 198.359 487.885 211.509 497.302 220.926C506.719 230.343 519.87 234 534.465 234V222ZM700.497 169.002V181.002H712.497V169.002H700.497ZM621.121 169.002V157.002H609.121V169.002H621.121ZM695.657 197.316H707.657V185.316H695.657V197.316ZM695.657 212.562L702.77 222.227L707.657 218.631V212.562H695.657ZM682.831 222V234H686.771L689.944 231.665L682.831 222ZM621.121 146.98H609.121V158.98H621.121V146.98ZM672.183 146.98V158.98H684.183V146.98H672.183ZM592.807 183.764H604.807V133.186H592.807H580.807V183.764H592.807ZM592.807 133.186H604.807C604.807 122.29 607.523 116.323 610.852 112.994C614.18 109.666 620.148 106.95 631.043 106.95V94.95V82.95C616.448 82.95 603.298 86.6069 593.881 96.0237C584.464 105.441 580.807 118.591 580.807 133.186H592.807ZM631.043 94.95V106.95H662.503V94.95V82.95H631.043V94.95ZM662.503 94.95V106.95C673.299 106.95 679.196 109.655 682.487 112.967C685.792 116.293 688.497 122.271 688.497 133.186H700.497H712.497C712.497 118.61 708.871 105.47 699.511 96.0507C690.137 86.6173 677.037 82.95 662.503 82.95V94.95ZM700.497 133.186H688.497V169.002H700.497H712.497V133.186H700.497ZM700.497 169.002V157.002H621.121V169.002V181.002H700.497V169.002ZM621.121 169.002H609.121V186.184H621.121H633.121V169.002H621.121ZM621.121 186.184H609.121C609.121 191.744 610.52 198.119 615.419 203.018C620.319 207.918 626.693 209.316 632.253 209.316V197.316V185.316C631.362 185.316 631.071 185.2 631.178 185.236C631.243 185.258 631.413 185.322 631.644 185.461C631.879 185.602 632.139 185.797 632.39 186.048C632.641 186.299 632.835 186.558 632.977 186.794C633.115 187.025 633.18 187.194 633.201 187.26C633.237 187.366 633.121 187.075 633.121 186.184H621.121ZM632.253 197.316V209.316H695.657V197.316V185.316H632.253V197.316ZM695.657 197.316H683.657V212.562H695.657H707.657V197.316H695.657ZM695.657 212.562L688.545 202.897L675.719 212.335L682.831 222L689.944 231.665L702.77 222.227L695.657 212.562ZM682.831 222V210H631.043V222V234H682.831V222ZM631.043 222V210C620.148 210 614.18 207.284 610.852 203.956C607.523 200.627 604.807 194.66 604.807 183.764H592.807H580.807C580.807 198.359 584.464 211.509 593.881 220.926C603.298 230.343 616.448 234 631.043 234V222ZM621.121 146.98V158.98H672.183V146.98V134.98H621.121V146.98ZM672.183 146.98H684.183V130.766H672.183H660.183V146.98H672.183ZM672.183 130.766H684.183C684.183 125.206 682.785 118.831 677.886 113.932C672.986 109.032 666.612 107.634 661.051 107.634V119.634V131.634C661.943 131.634 662.234 131.75 662.127 131.714C662.061 131.692 661.892 131.628 661.661 131.489C661.425 131.348 661.166 131.153 660.915 130.902C660.664 130.651 660.469 130.392 660.328 130.156C660.189 129.925 660.125 129.756 660.103 129.69C660.068 129.584 660.183 129.875 660.183 130.766H672.183ZM661.051 119.634V107.634H632.253V119.634V131.634H661.051V119.634ZM632.253 119.634V107.634C626.693 107.634 620.319 109.032 615.419 113.932C610.52 118.831 609.121 125.206 609.121 130.766H621.121H633.121C633.121 129.875 633.237 129.584 633.201 129.69C633.18 129.756 633.115 129.925 632.977 130.156C632.835 130.392 632.641 130.651 632.39 130.902C632.139 131.153 631.879 131.348 631.644 131.489C631.413 131.628 631.243 131.692 631.178 131.714C631.071 131.75 631.362 131.634 632.253 131.634V119.634ZM621.121 130.766H609.121V146.98H621.121H633.121V130.766H621.121ZM731.498 42.92V30.92H719.498V42.92H731.498ZM759.812 42.92H771.812V30.92H759.812V42.92ZM775.784 199.736H787.784V188.611L776.69 187.77L775.784 199.736ZM775.784 224.178V236.178H787.784V224.178H775.784ZM731.498 179.892H743.498V42.92H731.498H719.498V179.892H731.498ZM731.498 42.92V54.92H759.812V42.92V30.92H731.498V42.92ZM759.812 42.92H747.812V182.796H759.812H771.812V42.92H759.812ZM759.812 182.796H747.812C747.812 190.004 749.665 197.392 755.074 203.128C760.451 208.831 767.701 211.158 774.877 211.702L775.784 199.736L776.69 187.77C774.978 187.641 773.906 187.346 773.292 187.097C772.722 186.867 772.556 186.685 772.536 186.664C772.52 186.647 772.374 186.502 772.206 185.993C772.022 185.436 771.812 184.428 771.812 182.796H759.812ZM775.784 199.736H763.784V224.178H775.784H787.784V199.736H775.784ZM775.784 224.178V212.178C762.872 212.178 755.392 208.958 751.055 204.621C746.718 200.284 743.498 192.804 743.498 179.892H731.498H719.498C719.498 196.504 723.659 211.167 734.084 221.592C744.509 232.017 759.172 236.178 775.784 236.178V224.178Z" fill="#EAA221" mask="url(#path-1-inside-1_91_288)"/>
<path d="M74.6084 108.37L90.5574 124.043L18.562 197.306L2.61305 181.633L74.6084 108.37Z" fill="white"/>
<rect x="50" y="54" width="103" height="174" fill="white"/>
<path d="M149.346 60.4818L86.8215 131.279C85.7316 132.513 83.8365 132.639 82.5886 131.562L66.0188 117.249C64.7709 116.171 64.6428 114.297 65.7328 113.063L117.918 53.9713C118.488 53.3262 119.312 52.9561 120.178 52.9561H149.389C151.965 52.9561 153.343 55.9558 151.648 57.8748L149.346 60.4818Z" fill="#EAA221"/>
<path d="M149.337 216.976L86.8127 146.179C85.7228 144.945 83.8277 144.819 82.5798 145.896L66.0101 160.208C64.7621 161.286 64.634 163.161 65.724 164.396L117.91 223.487C118.479 224.132 119.303 224.502 120.169 224.502H149.38C151.956 224.502 153.334 221.502 151.64 219.583L149.337 216.976Z" fill="#EAA221"/>
<path d="M75.2725 140.695C76.6864 139.526 76.7099 137.384 75.3219 136.184L62.8126 125.376C60.8839 123.709 57.8667 125.045 57.839 127.578L57.6057 148.924C57.5781 151.457 60.5653 152.858 62.53 151.233L75.2725 140.695Z" fill="#EAA221"/>
</svg>
