<svg width="741" height="256" viewBox="0 0 741 256" fill="none" xmlns="http://www.w3.org/2000/svg">
<path d="M52.756 87.342L52.03 96.296L55.902 90.73L121.968 19.824H158.51L85.668 96.78L161.172 196H125.356L65.098 114.688L52.756 126.788V196H24.2V19.824H52.756V87.342ZM183.062 93.634H210.166V196H183.062V93.634ZM181.852 57.092C181.852 52.8973 183.465 49.4287 186.692 46.686C190.08 43.9433 193.71 42.572 197.582 42.572C201.454 42.572 204.922 43.9433 207.988 46.686C211.214 49.4287 212.828 52.8973 212.828 57.092C212.828 61.2867 211.214 64.7553 207.988 67.498C204.922 70.0793 201.454 71.37 197.582 71.37C193.71 71.37 190.08 69.9987 186.692 67.256C183.465 64.5133 181.852 61.1253 181.852 57.092ZM269.365 93.634L271.785 115.656L270.817 112.752C274.366 105.653 279.61 100.007 286.547 95.812C293.646 91.456 302.035 89.278 311.715 89.278C321.395 89.278 329.381 92.1013 335.673 97.748C341.965 103.395 345.192 110.816 345.353 120.012V196H318.249V129.692C318.088 124.529 316.636 120.415 313.893 117.35C311.15 114.123 306.794 112.429 300.825 112.268C295.34 112.268 290.419 113.962 286.063 117.35C281.707 120.577 278.238 125.094 275.657 130.902C273.237 136.549 272.027 143.083 272.027 150.504V196H244.923V93.634H269.365ZM411.016 198.178C403.272 198.178 395.851 196.807 388.752 194.064C381.815 191.321 375.926 187.288 371.086 181.964L382.702 166.718C387.22 171.074 391.656 174.301 396.012 176.398C400.53 178.334 404.805 179.302 408.838 179.302C411.904 179.302 414.646 178.979 417.066 178.334C419.648 177.527 421.664 176.317 423.116 174.704C424.73 173.091 425.536 170.913 425.536 168.17C425.536 164.943 424.407 162.443 422.148 160.668C419.89 158.732 416.986 157.199 413.436 156.07C409.887 154.779 406.176 153.569 402.304 152.44C393.431 149.697 386.816 145.664 382.46 140.34C378.104 135.016 375.926 128.885 375.926 121.948C375.926 116.624 377.298 111.542 380.04 106.702C382.783 101.701 386.978 97.5867 392.624 94.36C398.271 91.1333 405.37 89.52 413.92 89.52C421.664 89.52 428.36 90.4073 434.006 92.182C439.814 93.7953 445.219 96.6187 450.22 100.652L439.814 116.866C436.91 114.123 433.442 112.026 429.408 110.574C425.536 108.961 421.987 108.073 418.76 107.912C415.856 107.751 413.275 108.154 411.016 109.122C408.758 109.929 406.902 111.139 405.45 112.752C404.16 114.365 403.514 116.221 403.514 118.318C403.353 121.545 404.402 124.126 406.66 126.062C409.08 127.998 412.146 129.531 415.856 130.66C419.567 131.789 423.278 132.999 426.988 134.29C431.99 135.742 436.426 137.759 440.298 140.34C444.17 142.921 447.155 146.067 449.252 149.778C451.511 153.327 452.64 157.764 452.64 163.088C452.64 169.219 451.108 175.027 448.042 180.512C444.977 185.836 440.379 190.111 434.248 193.338C428.118 196.565 420.374 198.178 411.016 198.178ZM489.872 48.622H517.218V93.634H543.838V114.93H517.218V196H489.872V114.93H472.448V93.634H489.872V48.622ZM616.934 198.662C604.834 198.662 594.508 196.323 585.958 191.644C577.407 186.965 570.873 180.512 566.356 172.284C561.838 163.895 559.58 154.457 559.58 143.97C559.58 133.645 562.161 124.368 567.324 116.14C572.486 107.912 579.424 101.378 588.136 96.538C597.009 91.5367 606.77 89.036 617.418 89.036C631.454 89.036 642.989 93.15 652.024 101.378C661.22 109.445 667.35 120.899 670.416 135.742L587.894 163.572L581.602 148.326L645.974 125.336L640.408 128.482C638.633 123.642 635.729 119.447 631.696 115.898C627.824 112.349 622.338 110.574 615.24 110.574C609.593 110.574 604.592 111.945 600.236 114.688C595.88 117.269 592.411 120.98 589.83 125.82C587.41 130.499 586.2 136.065 586.2 142.518C586.2 149.133 587.571 154.941 590.314 159.942C593.056 164.943 596.767 168.815 601.446 171.558C606.124 174.139 611.448 175.43 617.418 175.43C621.612 175.43 625.646 174.704 629.518 173.252C633.39 171.8 637.02 169.864 640.408 167.444L652.75 187.53C647.426 190.918 641.537 193.661 635.084 195.758C628.792 197.694 622.742 198.662 616.934 198.662ZM694.665 7.23999H721.769V196H694.665V7.23999Z" fill="white"/>
<rect x="52" width="114" height="220" fill="black"/>
<path d="M156.346 31.4818L93.8215 102.279C92.7316 103.513 90.8365 103.639 89.5886 102.562L73.0188 88.2494C71.7709 87.1715 71.6428 85.297 72.7328 84.0628L124.918 24.9713C125.488 24.3262 126.312 23.9561 127.178 23.9561H156.389C158.965 23.9561 160.343 26.9558 158.648 28.8748L156.346 31.4818Z" fill="#EAA221"/>
<path d="M156.337 187.976L93.8127 117.179C92.7228 115.945 90.8277 115.819 89.5798 116.896L73.0101 131.208C71.7621 132.286 71.634 134.161 72.724 135.396L124.91 194.487C125.479 195.132 126.303 195.502 127.169 195.502H156.38C158.956 195.502 160.334 192.502 158.64 190.583L156.337 187.976Z" fill="#EAA221"/>
<path d="M82.2725 111.695C83.6864 110.526 83.7099 108.384 82.3219 107.184L69.8126 96.3758C67.8839 94.7093 64.8667 96.0454 64.839 98.5782L64.6057 119.924C64.5781 122.457 67.5653 123.858 69.53 122.233L82.2725 111.695Z" fill="#EAA221"/>
</svg>
