<svg width="1200" height="300" viewBox="0 0 1200 300" fill="none" xmlns="http://www.w3.org/2000/svg">
<g clip-path="url(#clip0_65_425)">
<path d="M296.152 266.973H261.517V105.963H296.152V266.973ZM278.648 76.8579C272.441 76.8579 267.103 75.2065 262.635 71.9038C258.414 68.3946 256.303 63.7501 256.303 57.9703C256.303 52.1904 258.414 47.6491 262.635 44.3464C267.103 40.8372 272.441 39.0826 278.648 39.0826C284.855 39.0826 290.069 40.8372 294.29 44.3464C298.759 47.6491 300.993 52.1904 300.993 57.9703C300.993 63.7501 298.759 68.3946 294.29 71.9038C290.069 75.2065 284.855 76.8579 278.648 76.8579ZM355.712 110.608C363.656 108.957 374.208 107.202 387.367 105.344C400.525 103.486 415.67 102.558 432.801 102.558C448.194 102.558 460.981 104.415 471.16 108.131C481.339 111.64 489.408 116.697 495.367 123.303C501.574 129.702 505.919 137.443 508.401 146.525C510.884 155.608 512.125 165.62 512.125 176.56V266.973H477.491V182.753C477.491 172.844 476.622 164.381 474.884 157.363C473.394 150.344 470.787 144.668 467.063 140.333C463.339 135.998 458.374 132.902 452.167 131.044C445.96 128.98 438.263 127.947 429.077 127.947C425.353 127.947 421.505 128.051 417.532 128.257C413.56 128.464 409.712 128.773 405.987 129.186C402.512 129.392 399.284 129.702 396.305 130.115C393.574 130.528 391.587 130.837 390.346 131.044V266.973H355.712V110.608ZM614.62 246.227C628.772 246.227 639.2 244.679 645.903 241.583C652.855 238.487 656.331 233.533 656.331 226.721C656.331 219.702 652.979 214.129 646.276 210C639.572 205.872 628.524 201.227 613.131 196.067C605.683 193.59 598.482 191.113 591.531 188.636C584.827 185.952 578.993 182.856 574.027 179.347C569.062 175.837 565.089 171.606 562.11 166.652C559.131 161.698 557.641 155.608 557.641 148.383C557.641 134.14 563.972 122.89 576.634 114.633C589.296 106.17 606.551 101.938 628.4 101.938C633.862 101.938 639.324 102.248 644.786 102.867C650.248 103.28 655.338 103.899 660.055 104.725C664.772 105.344 668.869 106.067 672.345 106.892C676.069 107.718 678.924 108.441 680.91 109.06L674.579 133.83C670.855 132.179 665.02 130.528 657.076 128.876C649.131 127.019 639.572 126.09 628.4 126.09C618.717 126.09 610.276 127.741 603.076 131.044C595.876 134.14 592.276 139.094 592.276 145.906C592.276 149.415 593.02 152.512 594.51 155.195C596.248 157.879 598.731 160.356 601.958 162.626C605.434 164.691 609.655 166.652 614.62 168.509C619.586 170.367 625.545 172.328 632.496 174.393C641.683 177.282 649.876 180.172 657.076 183.062C664.276 185.746 670.358 188.945 675.324 192.661C680.538 196.376 684.51 200.918 687.241 206.285C689.972 211.445 691.338 217.844 691.338 225.482C691.338 240.344 684.634 251.594 671.227 259.232C658.069 266.87 639.2 270.689 614.62 270.689C597.489 270.689 584.082 269.45 574.4 266.973C564.717 264.702 558.138 262.948 554.662 261.709L560.993 236.938C564.965 238.177 571.296 240.035 579.986 242.512C588.676 244.989 600.22 246.227 614.62 246.227ZM768.163 105.963H841.528V130.115H768.163V204.427C768.163 212.477 768.907 219.186 770.397 224.553C771.887 229.714 774.121 233.842 777.101 236.938C780.08 239.828 783.804 241.893 788.273 243.131C792.742 244.37 797.956 244.989 803.914 244.989C814.342 244.989 822.659 244.06 828.866 242.202C835.321 240.138 839.79 238.693 842.273 237.867L848.976 261.709C845.501 263.154 839.418 264.909 830.728 266.973C822.039 269.244 812.108 270.379 800.935 270.379C787.776 270.379 776.852 269.037 768.163 266.354C759.721 263.464 752.894 259.232 747.68 253.659C742.466 248.085 738.742 241.273 736.507 233.223C734.521 224.966 733.528 215.471 733.528 204.737V61.0666L768.163 56.1125V105.963ZM871.166 186.778C871.166 172.535 873.648 160.149 878.614 149.622C883.58 138.888 890.159 130.012 898.352 122.993C906.545 115.975 915.98 110.711 926.655 107.202C937.331 103.693 948.255 101.938 959.428 101.938C985.497 101.938 1005.48 108.75 1019.39 122.374C1033.29 135.792 1040.24 156.331 1040.24 183.991C1040.24 185.23 1040.24 186.881 1040.24 188.945C1040.24 190.803 1040.12 192.558 1039.87 194.209H907.29C908.78 210.929 914.614 223.624 924.793 232.294C934.973 240.964 950.862 245.299 972.462 245.299C984.628 245.299 994.807 244.473 1003 242.822C1011.44 240.964 1017.77 239.209 1021.99 237.558L1026.83 261.709C1022.61 263.567 1015.17 265.528 1004.49 267.592C994.062 269.656 982.145 270.689 968.738 270.689C951.855 270.689 937.207 268.624 924.793 264.496C912.628 260.161 902.573 254.278 894.628 246.847C886.683 239.416 880.724 230.643 876.752 220.528C873.028 210.207 871.166 198.957 871.166 186.778ZM1004.12 170.987C1004.37 157.982 1000.39 147.351 992.2 139.094C984.255 130.631 973.207 126.399 959.056 126.399C951.111 126.399 944.035 127.741 937.828 130.425C931.869 132.902 926.78 136.204 922.559 140.333C918.338 144.461 914.987 149.209 912.504 154.576C910.269 159.943 908.78 165.413 908.035 170.987H1004.12ZM1148.09 270.069C1126.74 269.656 1111.59 265.838 1102.66 258.613C1093.72 251.388 1089.25 240.138 1089.25 224.863V31.6514L1123.88 26.6973V220.218C1123.88 224.966 1124.38 228.888 1125.37 231.984C1126.37 235.081 1127.98 237.558 1130.21 239.416C1132.45 241.273 1135.43 242.718 1139.15 243.75C1142.88 244.576 1147.47 245.299 1152.93 245.918L1148.09 270.069Z" fill="#F2F2F2"/>
<mask id="mask0_65_425" style="mask-type:luminance" maskUnits="userSpaceOnUse" x="0" y="0" width="1200" height="300">
<path d="M1200 0H0V300H1200V0Z" fill="white"/>
<path d="M29.7932 60.5508C29.7932 30.1498 59.4351 5.50488 96.0002 5.50488H1109.92C1155.62 5.50488 1192.68 36.3111 1192.68 74.3123V225.689C1192.68 263.69 1155.62 294.496 1109.92 294.496H96.0002C59.4351 294.496 29.7932 269.851 29.7932 239.45V60.5508Z" fill="black"/>
</mask>
<g mask="url(#mask0_65_425)">
<path d="M0 60.5505C0 27.1094 32.6061 0 72.8276 0H1109.92C1159.28 0 1199.3 33.2705 1199.3 74.3119H1186.05C1186.05 39.3508 1151.97 11.0092 1109.92 11.0092H96C75.8891 11.0092 59.5862 33.1895 59.5862 60.5505H0ZM1199.3 225.688C1199.3 266.729 1159.28 300 1109.92 300H72.8276C32.6061 300 0 272.891 0 239.45H59.5862C59.5862 266.81 75.8891 288.991 96 288.991H1109.92C1151.97 288.991 1186.05 260.649 1186.05 225.688H1199.3ZM72.8276 300C32.6061 300 0 272.891 0 239.45V60.5505C0 27.1094 32.6061 0 72.8276 0L96 11.0092C75.8891 11.0092 59.5862 33.1895 59.5862 60.5505V239.45C59.5862 266.81 75.8891 288.991 96 288.991L72.8276 300ZM1109.92 0C1159.28 0 1199.3 33.2705 1199.3 74.3119V225.688C1199.3 266.729 1159.28 300 1109.92 300V288.991C1151.97 288.991 1186.05 260.649 1186.05 225.688V74.3119C1186.05 39.3508 1151.97 11.0092 1109.92 11.0092V0Z" fill="#E8BD30"/>
</g>
<path d="M199.849 40.7471L96.3577 139.257C94.5537 140.975 91.417 141.151 89.3515 139.651L61.9271 119.736C59.8616 118.236 59.6498 115.629 61.4537 113.911L147.83 31.688C148.773 30.7903 150.136 30.2754 151.57 30.2754H199.919C204.182 30.2754 206.463 34.4493 203.659 37.1196L199.849 40.7471Z" fill="#E8BD30"/>
<path d="M199.834 258.5L96.3431 159.989C94.5391 158.273 91.4024 158.096 89.3369 159.596L61.9125 179.51C59.847 181.01 59.6351 183.619 61.4391 185.337L147.815 267.559C148.758 268.457 150.122 268.971 151.555 268.971H199.904C204.167 268.971 206.448 264.797 203.644 262.128L199.834 258.5Z" fill="#E8BD30"/>
<path d="M77.2419 153.75C79.5822 152.122 79.6209 149.143 77.3234 147.474L56.6185 132.435C53.426 130.116 48.4322 131.976 48.3865 135.5L48.0003 165.203C47.9545 168.727 52.899 170.674 56.1509 168.413L77.2419 153.75Z" fill="#E8BD30"/>
</g>
<defs>
<clipPath id="clip0_65_425">
<path d="M0 30C0 13.4315 13.4315 0 30 0H1163C1183.43 0 1200 16.5655 1200 37V263C1200 283.435 1183.43 300 1163 300H30C13.4314 300 0 286.569 0 270V30Z" fill="white"/>
</clipPath>
</defs>
</svg>
